<svg width="17" height="17" viewBox="0 0 17 17" fill="none" xmlns="http://www.w3.org/2000/svg">
<path d="M9.40527 0.0830078C9.92215 0.0830078 10.3428 0.503633 10.3428 1.02051H12.1143C12.8897 1.02068 13.5205 1.65155 13.5205 2.42676V5.46582H15.3018C15.7327 5.46582 16.083 5.81613 16.083 6.24707V7.93457C16.083 8.3652 15.7327 8.71582 15.3018 8.71582H14.8057L13.7998 14.9141C13.6901 15.5909 13.1386 16.083 12.4883 16.083H3.68848C3.03924 16.0829 2.48765 15.5925 2.37695 14.917L1.36035 8.71582H0.864258C0.43332 8.71582 0.0830078 8.3652 0.0830078 7.93457V6.24707C0.0830078 5.81613 0.43332 5.46582 0.864258 5.46582H2.64551V2.42676C2.64551 1.65155 3.27628 1.02068 4.05176 1.02051H5.82324C5.82324 0.503633 6.24387 0.0830078 6.76074 0.0830078H9.40527ZM2.31055 8.71582L3.30176 14.7646C3.338 14.9849 3.50073 15.1454 3.68848 15.1455H5.04688L4.54492 8.71582H2.31055ZM5.48535 8.71582L5.9873 15.1455H7.61426V8.71582H5.48535ZM8.55176 8.71582V15.1455H10.1787L10.6807 8.71582H8.55176ZM11.6211 8.71582L11.1191 15.1455H12.4883C12.6763 15.1455 12.8389 14.9851 12.875 14.7646L13.8564 8.71582H11.6211ZM1.02051 6.40332V7.77832H15.1455V6.40332H1.02051ZM4.05176 1.95801C3.79346 1.95818 3.58301 2.16842 3.58301 2.42676V5.46582H12.583V2.42676C12.583 2.16842 12.3726 1.95818 12.1143 1.95801H10.3428C10.3428 2.47488 9.92215 2.89551 9.40527 2.89551H6.76074C6.24387 2.89551 5.82324 2.47488 5.82324 1.95801H4.05176ZM6.76074 1.02051V1.95801H9.40625L9.40527 1.02051H6.76074Z" fill="#0080C7"/>
<path d="M10.3428 1.02051H10.2594V1.10384H10.3428V1.02051ZM12.1143 1.02051L12.1143 0.937174H12.1143V1.02051ZM13.5205 5.46582H13.4372V5.54915H13.5205V5.46582ZM14.8057 8.71582V8.63249H14.7348L14.7234 8.70247L14.8057 8.71582ZM13.7998 14.9141L13.7175 14.9007L13.7175 14.9007L13.7998 14.9141ZM3.68848 16.083L3.68847 16.1663H3.68848V16.083ZM2.37695 14.917L2.45919 14.9035L2.45919 14.9035L2.37695 14.917ZM1.36035 8.71582L1.44259 8.70234L1.43114 8.63249H1.36035V8.71582ZM2.64551 5.46582V5.54915H2.72884V5.46582H2.64551ZM4.05176 1.02051V0.937174H4.05174L4.05176 1.02051ZM5.82324 1.02051V1.10384H5.90658V1.02051H5.82324ZM2.31055 8.71582V8.63249H2.21245L2.22831 8.7293L2.31055 8.71582ZM3.30176 14.7646L3.21952 14.7781L3.21953 14.7782L3.30176 14.7646ZM3.68848 15.1455L3.68844 15.2288H3.68848V15.1455ZM5.04688 15.1455V15.2288H5.13697L5.12996 15.139L5.04688 15.1455ZM4.54492 8.71582L4.628 8.70933L4.622 8.63249H4.54492V8.71582ZM5.48535 8.71582V8.63249H5.39526L5.40227 8.72231L5.48535 8.71582ZM5.9873 15.1455L5.90422 15.152L5.91022 15.2288H5.9873V15.1455ZM7.61426 15.1455V15.2288H7.69759V15.1455H7.61426ZM7.61426 8.71582H7.69759V8.63249H7.61426V8.71582ZM8.55176 8.71582V8.63249H8.46842V8.71582H8.55176ZM8.55176 15.1455H8.46842V15.2288H8.55176V15.1455ZM10.1787 15.1455V15.2288H10.2558L10.2618 15.152L10.1787 15.1455ZM10.6807 8.71582L10.7637 8.72231L10.7708 8.63249H10.6807V8.71582ZM11.6211 8.71582V8.63249H11.544L11.538 8.70933L11.6211 8.71582ZM11.1191 15.1455L11.0361 15.139L11.029 15.2288H11.1191V15.1455ZM12.875 14.7646L12.9572 14.7781L12.9573 14.778L12.875 14.7646ZM13.8564 8.71582L13.9387 8.72917L13.9544 8.63249H13.8564V8.71582ZM1.02051 6.40332V6.31999H0.937174V6.40332H1.02051ZM1.02051 7.77832H0.937174V7.86165H1.02051V7.77832ZM15.1455 7.77832V7.86165H15.2288V7.77832H15.1455ZM15.1455 6.40332H15.2288V6.31999H15.1455V6.40332ZM4.05176 1.95801V1.87467H4.0517L4.05176 1.95801ZM3.58301 5.46582H3.49967V5.54915H3.58301V5.46582ZM12.583 5.46582V5.54915H12.6663V5.46582H12.583ZM12.1143 1.95801L12.1143 1.87467H12.1143V1.95801ZM10.3428 1.95801V1.87467H10.2594V1.95801H10.3428ZM5.82324 1.95801H5.90658V1.87467H5.82324V1.95801ZM6.76074 1.02051V0.937174H6.67741V1.02051H6.76074ZM6.76074 1.95801H6.67741V2.04134H6.76074V1.95801ZM9.40625 1.95801V2.04134H9.48967L9.48958 1.95792L9.40625 1.95801ZM9.40527 1.02051L9.48861 1.02042L9.48852 0.937174H9.40527V1.02051ZM9.40527 0.0830078V0.166341C9.87612 0.166341 10.2594 0.549657 10.2594 1.02051H10.3428H10.4261C10.4261 0.457609 9.96817 -0.000325523 9.40527 -0.000325523V0.0830078ZM10.3428 1.02051V1.10384H12.1143V1.02051V0.937174H10.3428V1.02051ZM12.1143 1.02051L12.1142 1.10384C12.8437 1.104 13.4372 1.69758 13.4372 2.42676H13.5205H13.6038C13.6038 1.60552 12.9358 0.937354 12.1143 0.937174L12.1143 1.02051ZM13.5205 2.42676H13.4372V5.46582H13.5205H13.6038V2.42676H13.5205ZM13.5205 5.46582V5.54915H15.3018V5.46582V5.38249H13.5205V5.46582ZM15.3018 5.46582V5.54915C15.6867 5.54915 15.9997 5.86216 15.9997 6.24707H16.083H16.1663C16.1663 5.77011 15.7787 5.38249 15.3018 5.38249V5.46582ZM16.083 6.24707H15.9997V7.93457H16.083H16.1663V6.24707H16.083ZM16.083 7.93457H15.9997C15.9997 8.31919 15.6867 8.63249 15.3018 8.63249V8.71582V8.79915C15.7787 8.79915 16.1663 8.4112 16.1663 7.93457H16.083ZM15.3018 8.71582V8.63249H14.8057V8.71582V8.79915H15.3018V8.71582ZM14.8057 8.71582L14.7234 8.70247L13.7175 14.9007L13.7998 14.9141L13.8821 14.9274L14.8879 8.72917L14.8057 8.71582ZM13.7998 14.9141L13.7175 14.9007C13.6139 15.5406 13.0944 15.9997 12.4883 15.9997V16.083V16.1663C13.1828 16.1663 13.7664 15.6413 13.8821 14.9274L13.7998 14.9141ZM12.4883 16.083V15.9997H3.68848V16.083V16.1663H12.4883V16.083ZM3.68848 16.083L3.68849 15.9997C3.0833 15.9996 2.56382 15.542 2.45919 14.9035L2.37695 14.917L2.29472 14.9305C2.41148 15.6429 2.99517 16.1663 3.68847 16.1663L3.68848 16.083ZM2.37695 14.917L2.45919 14.9035L1.44259 8.70234L1.36035 8.71582L1.27812 8.7293L2.29472 14.9305L2.37695 14.917ZM1.36035 8.71582V8.63249H0.864258V8.71582V8.79915H1.36035V8.71582ZM0.864258 8.71582V8.63249C0.479366 8.63249 0.166341 8.31919 0.166341 7.93457H0.0830078H-0.000325523C-0.000325523 8.4112 0.387275 8.79915 0.864258 8.79915V8.71582ZM0.0830078 7.93457H0.166341V6.24707H0.0830078H-0.000325523V7.93457H0.0830078ZM0.0830078 6.24707H0.166341C0.166341 5.86216 0.479344 5.54915 0.864258 5.54915V5.46582V5.38249C0.387297 5.38249 -0.000325523 5.77011 -0.000325523 6.24707H0.0830078ZM0.864258 5.46582V5.54915H2.64551V5.46582V5.38249H0.864258V5.46582ZM2.64551 5.46582H2.72884V2.42676H2.64551H2.56217V5.46582H2.64551ZM2.64551 2.42676H2.72884C2.72884 1.69758 3.3223 1.104 4.05178 1.10384L4.05176 1.02051L4.05174 0.937174C3.23025 0.937354 2.56217 1.60552 2.56217 2.42676H2.64551ZM4.05176 1.02051V1.10384H5.82324V1.02051V0.937174H4.05176V1.02051ZM5.82324 1.02051H5.90658C5.90658 0.549657 6.28989 0.166341 6.76074 0.166341V0.0830078V-0.000325523C6.19784 -0.000325523 5.73991 0.457609 5.73991 1.02051H5.82324ZM6.76074 0.0830078V0.166341H9.40527V0.0830078V-0.000325523H6.76074V0.0830078ZM2.31055 8.71582L2.22831 8.7293L3.21952 14.7781L3.30176 14.7646L3.38399 14.7512L2.39278 8.70234L2.31055 8.71582ZM3.30176 14.7646L3.21953 14.7782C3.26057 15.0276 3.44961 15.2287 3.68844 15.2288L3.68848 15.1455L3.68852 15.0622C3.55185 15.0621 3.41543 14.9422 3.38399 14.7511L3.30176 14.7646ZM3.68848 15.1455V15.2288H5.04688V15.1455V15.0622H3.68848V15.1455ZM5.04688 15.1455L5.12996 15.139L4.628 8.70933L4.54492 8.71582L4.46184 8.72231L4.96379 15.152L5.04688 15.1455ZM4.54492 8.71582V8.63249H2.31055V8.71582V8.79915H4.54492V8.71582ZM5.48535 8.71582L5.40227 8.72231L5.90422 15.152L5.9873 15.1455L6.07039 15.139L5.56843 8.70933L5.48535 8.71582ZM5.9873 15.1455V15.2288H7.61426V15.1455V15.0622H5.9873V15.1455ZM7.61426 15.1455H7.69759V8.71582H7.61426H7.53092V15.1455H7.61426ZM7.61426 8.71582V8.63249H5.48535V8.71582V8.79915H7.61426V8.71582ZM8.55176 8.71582H8.46842V15.1455H8.55176H8.63509V8.71582H8.55176ZM8.55176 15.1455V15.2288H10.1787V15.1455V15.0622H8.55176V15.1455ZM10.1787 15.1455L10.2618 15.152L10.7637 8.72231L10.6807 8.71582L10.5976 8.70933L10.0956 15.139L10.1787 15.1455ZM10.6807 8.71582V8.63249H8.55176V8.71582V8.79915H10.6807V8.71582ZM11.6211 8.71582L11.538 8.70933L11.0361 15.139L11.1191 15.1455L11.2022 15.152L11.7042 8.72231L11.6211 8.71582ZM11.1191 15.1455V15.2288H12.4883V15.1455V15.0622H11.1191V15.1455ZM12.4883 15.1455V15.2288C12.7274 15.2288 12.9164 15.0278 12.9572 14.7781L12.875 14.7646L12.7928 14.7512C12.7615 14.9424 12.6252 15.0622 12.4883 15.0622V15.1455ZM12.875 14.7646L12.9573 14.778L13.9387 8.72917L13.8564 8.71582L13.7742 8.70247L12.7927 14.7513L12.875 14.7646ZM13.8564 8.71582V8.63249H11.6211V8.71582V8.79915H13.8564V8.71582ZM1.02051 6.40332H0.937174V7.77832H1.02051H1.10384V6.40332H1.02051ZM1.02051 7.77832V7.86165H15.1455V7.77832V7.69499H1.02051V7.77832ZM15.1455 7.77832H15.2288V6.40332H15.1455H15.0622V7.77832H15.1455ZM15.1455 6.40332V6.31999H1.02051V6.40332V6.48665H15.1455V6.40332ZM4.05176 1.95801L4.0517 1.87467C3.74748 1.87487 3.49967 2.12235 3.49967 2.42676H3.58301H3.66634C3.66634 2.2145 3.83944 2.04148 4.05181 2.04134L4.05176 1.95801ZM3.58301 2.42676H3.49967V5.46582H3.58301H3.66634V2.42676H3.58301ZM3.58301 5.46582V5.54915H12.583V5.46582V5.38249H3.58301V5.46582ZM12.583 5.46582H12.6663V2.42676H12.583H12.4997V5.46582H12.583ZM12.583 2.42676H12.6663C12.6663 2.12235 12.4185 1.87487 12.1143 1.87467L12.1143 1.95801L12.1142 2.04134C12.3266 2.04148 12.4997 2.2145 12.4997 2.42676H12.583ZM12.1143 1.95801V1.87467H10.3428V1.95801V2.04134H12.1143V1.95801ZM10.3428 1.95801H10.2594C10.2594 2.42886 9.87612 2.81217 9.40527 2.81217V2.89551V2.97884C9.96817 2.97884 10.4261 2.52091 10.4261 1.95801H10.3428ZM9.40527 2.89551V2.81217H6.76074V2.89551V2.97884H9.40527V2.89551ZM6.76074 2.89551V2.81217C6.28989 2.81217 5.90658 2.42886 5.90658 1.95801H5.82324H5.73991C5.73991 2.52091 6.19784 2.97884 6.76074 2.97884V2.89551ZM5.82324 1.95801V1.87467H4.05176V1.95801V2.04134H5.82324V1.95801ZM6.76074 1.02051H6.67741V1.95801H6.76074H6.84408V1.02051H6.76074ZM6.76074 1.95801V2.04134H9.40625V1.95801V1.87467H6.76074V1.95801ZM9.40625 1.95801L9.48958 1.95792L9.48861 1.02042L9.40527 1.02051L9.32194 1.02059L9.32292 1.95809L9.40625 1.95801ZM9.40527 1.02051V0.937174H6.76074V1.02051V1.10384H9.40527V1.02051Z" fill="#0080C7"/>
</svg>
