<svg width="27" height="27" viewBox="0 0 27 27" fill="none" xmlns="http://www.w3.org/2000/svg">
<path d="M13.3336 21.1283C17.5661 21.1283 20.9972 17.6971 20.9972 13.4645C20.9972 9.23197 17.5661 5.80078 13.3336 5.80078C9.10106 5.80078 5.66992 9.23197 5.66992 13.4645C5.66992 17.6971 9.10106 21.1283 13.3336 21.1283Z" stroke="#0080C7" stroke-width="1.11111" stroke-linecap="round" stroke-linejoin="round"/>
<path d="M5.66992 13.4648H20.9972" stroke="#0080C7" stroke-width="1.11111" stroke-linecap="round" stroke-linejoin="round"/>
<path d="M13.333 5.80078V21.1283" stroke="#0080C7" stroke-width="1.11111" stroke-linecap="round" stroke-linejoin="round"/>
<path d="M6.72656 10.0293C11.3512 12.4077 15.5794 12.4077 19.9398 10.0293" stroke="#0080C7" stroke-width="1.11111" stroke-linecap="round" stroke-linejoin="round"/>
<path d="M6.72656 16.899C11.3512 14.5206 15.5794 14.5206 19.9398 16.899" stroke="#0080C7" stroke-width="1.11111" stroke-linecap="round" stroke-linejoin="round"/>
<path d="M5.40551 12.408L3.55566 11.6152" stroke="#0080C7" stroke-width="1.11111" stroke-linecap="round" stroke-linejoin="round"/>
<path d="M21.2617 14.5215L23.1116 15.3143" stroke="#0080C7" stroke-width="1.11111" stroke-linecap="round" stroke-linejoin="round"/>
<path d="M19.6758 10.8225C21.1353 10.8225 22.3185 9.6393 22.3185 8.17979C22.3185 6.72028 21.1353 5.53711 19.6758 5.53711C18.2164 5.53711 17.0332 6.72028 17.0332 8.17979C17.0332 9.6393 18.2164 10.8225 19.6758 10.8225Z" stroke="#0080C7" stroke-width="1.11111" stroke-linecap="round" stroke-linejoin="round"/>
<path d="M17.5615 9.76367L21.2612 11.6135" stroke="#0080C7" stroke-width="1.11111" stroke-linecap="round" stroke-linejoin="round"/>
</svg>
