<svg width="27" height="27" viewBox="0 0 27 27" fill="none" xmlns="http://www.w3.org/2000/svg">
<path d="M7.83372 11.1323C9.45376 11.1323 10.7671 9.81901 10.7671 8.19897C10.7671 6.57893 9.45376 5.26562 7.83372 5.26562C6.21369 5.26562 4.90039 6.57893 4.90039 8.19897C4.90039 9.81901 6.21369 11.1323 7.83372 11.1323Z" stroke="#0080C7" stroke-width="1.11111" stroke-linecap="round" stroke-linejoin="round"/>
<path d="M13.3331 10.6428C14.6831 10.6428 15.7776 9.5484 15.7776 8.19836C15.7776 6.84833 14.6831 5.75391 13.3331 5.75391C11.9831 5.75391 10.8887 6.84833 10.8887 8.19836C10.8887 9.5484 11.9831 10.6428 13.3331 10.6428Z" stroke="#0080C7" stroke-width="1.11111" stroke-linecap="round" stroke-linejoin="round"/>
<path d="M18.8337 11.1323C20.4538 11.1323 21.7671 9.81901 21.7671 8.19897C21.7671 6.57893 20.4538 5.26562 18.8337 5.26562C17.2137 5.26562 15.9004 6.57893 15.9004 8.19897C15.9004 9.81901 17.2137 11.1323 18.8337 11.1323Z" stroke="#0080C7" stroke-width="1.11111" stroke-linecap="round" stroke-linejoin="round"/>
<path d="M7.83301 11.1328V21.3995" stroke="#0080C7" stroke-width="1.11111" stroke-linecap="round" stroke-linejoin="round"/>
<path d="M13.333 10.6426V21.3982" stroke="#0080C7" stroke-width="1.11111" stroke-linecap="round" stroke-linejoin="round"/>
<path d="M18.833 11.1328V21.3995" stroke="#0080C7" stroke-width="1.11111" stroke-linecap="round" stroke-linejoin="round"/>
<path d="M3.55566 16.1426H23.1112" stroke="#0080C7" stroke-width="1.11111" stroke-linecap="round" stroke-linejoin="round"/>
</svg>
